# xmcd
#
# Track frame offsets: 
#        150
#        19301
#        34850
#        52955
#        69804
#        86576
#        102467
#        118496
#        138743
#        163598
#        180197
#        197899
#
# Disc length: 2946 seconds
#
# Revision: 0
# Processed by: cddbd v1.5.2PL0 Copyright (c) Steve Scherf et al.
# Submitted via: ExactAudioCopy v0.90b4
#
DISCID=a50b800c
DTITLE=Chris Jackson - Finally
DYEAR=2007
DGENRE=R&B
TTITLE0=Lose Control feat. Barakade
TTITLE1=Pull U feat. E Klipz
TTITLE2=Find A Way feat. Eye-Self
TTITLE3=Have Ur Way feat. Miguel Ramirez
TTITLE4=Bye Bye
TTITLE5=No Happy ending
TTITLE6=Still Want U back
TTITLE7=My Boo
TTITLE8=Suddenly feat. Krystle Blue
TTITLE9=2 Get Over U
TTITLE10=Don't Put The Phone Down
TTITLE11=Before Ur Man Comes Home
EXTD=
EXTT0=
EXTT1=
EXTT2=
EXTT3=
EXTT4=
EXTT5=
EXTT6=
EXTT7=
EXTT8=
EXTT9=
EXTT10=
EXTT11=
PLAYORDER=
